<svg xmlns="http://www.w3.org/2000/svg" xmlns:xlink="http://www.w3.org/1999/xlink" width="200" zoomAndPan="magnify" viewBox="0 0 150 149.999998" height="200" preserveAspectRatio="xMidYMid meet" version="1.0"><defs><g/><clipPath id="id1"><path d="M 13 88 L 134 88 L 134 97 L 13 97 Z M 13 88 " clip-rule="nonzero"/></clipPath><clipPath id="id2"><path d="M 13.332031 89.691406 L 133.296875 86.738281 L 133.460938 93.484375 L 13.496094 96.441406 Z M 13.332031 89.691406 " clip-rule="nonzero"/></clipPath><clipPath id="id3"><path d="M 13.332031 89.691406 L 133.296875 86.738281 L 133.460938 93.484375 L 13.496094 96.441406 Z M 13.332031 89.691406 " clip-rule="nonzero"/></clipPath></defs><rect x="-15" width="180" fill="#ffffff" y="-15" height="179.999997" fill-opacity="1"/><rect x="-15" width="180" fill="#000000" y="-15" height="179.999997" fill-opacity="1"/><rect x="-15" width="180" fill="#ffffff" y="-15" height="179.999997" fill-opacity="1"/><rect x="-15" width="180" fill="#000000" y="-15" height="179.999997" fill-opacity="1"/><g fill="#f8f8f8" fill-opacity="1"><g transform="translate(9.302497, 85.058916)"><g><path d="M 25.613281 -19.429688 C 28.996094 -25.847656 29.640625 -34.773438 23.222656 -34.773438 C 22.464844 -34.773438 21.53125 -34.597656 20.421875 -34.25 C 14.179688 -32.441406 -0.234375 -21.996094 -0.117188 -12.3125 C -0.0585938 -6.652344 6.476562 -3.851562 10.503906 -3.09375 C 12.253906 -2.742188 14.121094 -2.566406 15.871094 -2.101562 C 16.863281 -1.867188 18.378906 -1.632812 17.210938 0.0585938 C 15.753906 2.332031 10.503906 5.835938 8.109375 5.835938 C 7.234375 5.835938 6.882812 5.542969 6.417969 4.84375 C 6.300781 4.609375 6.125 4.550781 6.007812 4.550781 C 5.777344 4.550781 5.660156 4.84375 5.777344 5.191406 C 6.183594 7.058594 7.46875 8.167969 9.394531 8.167969 C 11.785156 8.167969 14.703125 6.300781 16.394531 4.902344 C 18.144531 3.265625 21.238281 -0.523438 18.730469 -3.152344 C 15.34375 -6.882812 3.910156 -5.71875 2.800781 -10.792969 C 1.457031 -16.921875 15.226562 -28.003906 18.085938 -29.464844 C 19.3125 -30.105469 21.9375 -31.566406 23.804688 -31.566406 C 24.328125 -31.566406 24.796875 -31.449219 25.148438 -31.214844 C 26.78125 -30.105469 25.378906 -25.089844 22.988281 -20.480469 C 21.9375 -18.554688 18.085938 -11.785156 15.871094 -11.785156 L 15.578125 -11.785156 C 15.402344 -11.785156 15.285156 -11.726562 15.167969 -11.609375 C 14.820312 -11.320312 15.113281 -11.027344 15.34375 -10.910156 C 15.753906 -10.734375 16.160156 -10.675781 16.570312 -10.675781 C 20.304688 -10.675781 24.097656 -16.511719 25.613281 -19.429688 Z M 25.613281 -19.429688 "/></g></g></g><g fill="#f8f8f8" fill-opacity="1"><g transform="translate(31.881434, 85.058916)"><g><path d="M 11.492188 -12.542969 L 11.492188 -12.601562 C 11.667969 -12.953125 11.726562 -13.300781 11.785156 -13.652344 C 12.195312 -15.578125 10.851562 -17.210938 8.984375 -17.210938 C 8.34375 -17.210938 7.703125 -17.035156 7 -16.570312 C 3.382812 -14.121094 -2.160156 -5.25 1.226562 -1.109375 C 1.867188 -0.234375 2.800781 0.117188 3.910156 0.117188 C 8.109375 0.117188 12.078125 -5.484375 14.179688 -8.460938 C 14.9375 -9.570312 15.578125 -10.445312 15.929688 -10.910156 C 15.929688 -11.378906 15.578125 -11.550781 15.34375 -11.550781 C 15.285156 -11.550781 15.226562 -11.550781 15.226562 -11.492188 C 12.894531 -8.285156 8.109375 -1.808594 3.792969 -1.808594 C -0.0585938 -2.277344 7.644531 -14.820312 10.035156 -14.820312 C 10.152344 -14.820312 10.328125 -14.761719 10.386719 -14.644531 C 10.851562 -13.828125 9.394531 -11.261719 8.75 -10.617188 C 8.519531 -10.328125 7.761719 -9.628906 8.34375 -9.394531 C 8.402344 -9.335938 8.519531 -9.335938 8.578125 -9.335938 C 9.683594 -9.335938 11.085938 -11.726562 11.492188 -12.542969 Z M 11.492188 -12.542969 "/></g></g></g><g fill="#f8f8f8" fill-opacity="1"><g transform="translate(43.433447, 85.058916)"><g><path d="M 19.894531 -12.195312 C 19.777344 -12.019531 18.203125 -9.800781 16.6875 -7.933594 L 16.570312 -7.816406 C 15.871094 -6.941406 11.609375 -1.867188 10.734375 -1.867188 C 10.675781 -1.867188 10.617188 -1.925781 10.617188 -1.925781 C 10.035156 -2.625 14.703125 -11.4375 15.167969 -12.835938 C 15.519531 -13.945312 14.234375 -15.167969 12.894531 -15.167969 C 12.3125 -15.167969 11.667969 -14.9375 11.261719 -14.351562 C 8.109375 -10.851562 5.542969 -7.585938 3.152344 -3.96875 C 5.835938 -11.667969 12.371094 -23.046875 14.878906 -25.378906 C 15.402344 -25.847656 14.179688 -27.421875 12.601562 -27.421875 C 11.4375 -27.421875 11.027344 -26.839844 10.445312 -25.90625 C 7.46875 -20.945312 0.875 -8.34375 0.175781 -2.742188 C 0 -1.457031 0.351562 -0.234375 2.042969 0 C 4.726562 -4.375 8.578125 -9.628906 11.785156 -13.070312 C 10.617188 -11.085938 5.367188 -0.992188 9.511719 -0.175781 C 9.683594 -0.117188 9.800781 -0.0585938 10.035156 -0.0585938 C 11.609375 -0.0585938 15.871094 -5.132812 16.863281 -6.476562 C 18.613281 -8.460938 20.070312 -10.851562 20.652344 -11.609375 C 20.539062 -12.078125 20.304688 -12.253906 20.070312 -12.253906 C 20.011719 -12.253906 19.953125 -12.253906 19.894531 -12.195312 Z M 19.894531 -12.195312 "/></g></g></g><g fill="#f8f8f8" fill-opacity="1"><g transform="translate(59.186197, 85.058916)"><g><path d="M 17.386719 -3.265625 L 17.386719 -3.441406 C 18.554688 -6.941406 20.070312 -10.09375 21.820312 -13.300781 C 22.464844 -14.585938 20.539062 -15.285156 19.605469 -15.34375 C 19.488281 -15.34375 19.429688 -15.34375 19.371094 -15.285156 C 17.503906 -14.820312 13.417969 -8.695312 12.195312 -6.941406 C 12.019531 -6.769531 11.960938 -6.535156 11.902344 -6.535156 C 11.902344 -6.535156 11.960938 -6.652344 12.019531 -6.941406 C 13.417969 -10.09375 15.113281 -13.070312 16.570312 -16.160156 L 16.628906 -16.277344 C 16.921875 -17.035156 16.921875 -17.679688 16.394531 -18.203125 C 15.988281 -18.613281 15.167969 -19.019531 14.527344 -19.019531 C 14.46875 -19.019531 14.292969 -19.019531 14.234375 -18.960938 C 13.417969 -18.671875 3.675781 -5.191406 2.625 -3.617188 L 7.410156 -12.601562 C 7.703125 -13.1875 7.933594 -13.417969 7.527344 -14.003906 L 7.410156 -14.0625 C 6.882812 -14.644531 6.183594 -14.878906 5.367188 -14.878906 C 4.550781 -14.878906 4.085938 -14.703125 3.734375 -13.945312 C 1.632812 -9.453125 1.167969 -8.75 -0.523438 -4.027344 C -0.816406 -3.09375 -1.050781 -2.042969 -0.410156 -1.226562 C 0 -0.757812 1.167969 -0.0585938 1.808594 -0.117188 C 2.160156 -0.117188 2.566406 -0.992188 2.800781 -1.285156 C 5.71875 -5.71875 8.925781 -10.09375 12.195312 -14.179688 C 10.851562 -11.785156 9.800781 -9.511719 9.042969 -7.175781 C 8.808594 -6.300781 8.578125 -5.25 8.984375 -4.316406 C 9.160156 -3.734375 9.859375 -2.976562 10.503906 -2.917969 C 10.851562 -2.976562 10.96875 -3.152344 11.085938 -3.324219 C 13.070312 -6.183594 15.167969 -8.867188 17.269531 -11.609375 C 17.386719 -11.726562 17.445312 -11.902344 17.445312 -11.902344 C 17.503906 -11.902344 17.445312 -11.726562 17.328125 -11.550781 C 16.277344 -9.101562 15.285156 -6.652344 14.703125 -4.027344 C 14.527344 -3.152344 14.527344 -1.808594 15.460938 -1.167969 C 15.8125 -0.992188 16.101562 -0.816406 16.453125 -0.816406 C 19.894531 -0.816406 25.03125 -8.226562 27.015625 -11.261719 C 26.898438 -11.667969 26.722656 -11.902344 26.488281 -11.902344 C 26.429688 -11.902344 26.371094 -11.902344 26.3125 -11.785156 C 26.195312 -11.667969 25.148438 -10.210938 23.921875 -8.578125 C 23.222656 -7.703125 18.730469 -2.390625 17.445312 -2.390625 C 17.269531 -2.390625 17.210938 -2.625 17.386719 -3.265625 Z M 17.386719 -3.265625 "/></g></g></g><g fill="#f8f8f8" fill-opacity="1"><g transform="translate(81.531757, 85.058916)"><g><path d="M 0.410156 -3.265625 C 0.582031 -1.398438 1.75 0 3.675781 0 C 9.160156 0 16.101562 -13.417969 10.328125 -16.21875 C 10.035156 -16.394531 9.628906 -16.453125 9.21875 -16.453125 C 7.644531 -16.453125 6.125 -15.226562 5.191406 -14.003906 C 4.316406 -14.003906 3.910156 -13.59375 3.441406 -12.835938 C 1.867188 -10.445312 0.0585938 -6.183594 0.410156 -3.265625 Z M 4.257812 -6.652344 C 4.960938 -8.226562 6.125 -10.734375 7.058594 -12.019531 C 7.292969 -12.253906 7.761719 -12.660156 7.585938 -12.953125 C 7.527344 -13.1875 7.175781 -13.417969 6.882812 -13.535156 C 7.527344 -14.585938 8.402344 -15.113281 9.101562 -15.113281 C 9.453125 -15.113281 9.683594 -14.9375 9.976562 -14.820312 C 13.535156 -12.3125 6.125 -1.632812 3.734375 -1.632812 C 3.324219 -1.632812 3.09375 -1.867188 3.035156 -2.449219 C 2.917969 -3.675781 3.96875 -6.125 4.257812 -6.652344 Z M 4.257812 -6.652344 "/></g></g></g><g fill="#f8f8f8" fill-opacity="1"><g transform="translate(93.725552, 85.058916)"><g><path d="M 0.410156 -3.265625 C 0.582031 -1.398438 1.75 0 3.675781 0 C 9.160156 0 16.101562 -13.417969 10.328125 -16.21875 C 10.035156 -16.394531 9.628906 -16.453125 9.21875 -16.453125 C 7.644531 -16.453125 6.125 -15.226562 5.191406 -14.003906 C 4.316406 -14.003906 3.910156 -13.59375 3.441406 -12.835938 C 1.867188 -10.445312 0.0585938 -6.183594 0.410156 -3.265625 Z M 4.257812 -6.652344 C 4.960938 -8.226562 6.125 -10.734375 7.058594 -12.019531 C 7.292969 -12.253906 7.761719 -12.660156 7.585938 -12.953125 C 7.527344 -13.1875 7.175781 -13.417969 6.882812 -13.535156 C 7.527344 -14.585938 8.402344 -15.113281 9.101562 -15.113281 C 9.453125 -15.113281 9.683594 -14.9375 9.976562 -14.820312 C 13.535156 -12.3125 6.125 -1.632812 3.734375 -1.632812 C 3.324219 -1.632812 3.09375 -1.867188 3.035156 -2.449219 C 2.917969 -3.675781 3.96875 -6.125 4.257812 -6.652344 Z M 4.257812 -6.652344 "/></g></g></g><g fill="#f8f8f8" fill-opacity="1"><g transform="translate(105.919347, 85.058916)"><g><path d="M 9.683594 -13.535156 C 9.800781 -13.59375 1.691406 -5.367188 -0.234375 -2.976562 C -0.410156 -2.742188 -0.410156 -2.566406 -0.234375 -2.390625 C -0.175781 -1.632812 0 -0.464844 0.992188 -0.464844 C 1.167969 -0.464844 1.457031 -0.523438 1.808594 -0.640625 C 3.210938 -1.167969 5.074219 -1.691406 6.882812 -1.691406 C 7.703125 -1.691406 8.460938 -1.515625 9.160156 -1.285156 C 9.335938 -1.226562 9.394531 -1.226562 9.511719 -1.226562 C 9.628906 -1.226562 9.628906 -1.34375 9.570312 -1.691406 C 9.160156 -3.324219 6.941406 -3.734375 4.960938 -3.734375 C 4.027344 -3.734375 3.210938 -3.675781 2.625 -3.617188 C 5.835938 -7.117188 12.3125 -13.710938 12.953125 -14.121094 C 13.886719 -14.703125 12.601562 -16.160156 11.667969 -16.160156 L 11.550781 -16.160156 C 10.09375 -15.929688 6.828125 -15.34375 4.550781 -15.34375 C 3.558594 -15.34375 2.742188 -15.460938 2.390625 -15.753906 C 1.75 -15.753906 1.808594 -12.953125 4.027344 -12.777344 C 4.199219 -12.777344 4.316406 -12.71875 4.375 -12.71875 C 3.851562 -11.726562 3.265625 -10.851562 2.800781 -10.269531 C 2.742188 -10.210938 2.742188 -10.152344 2.683594 -10.152344 C 2.566406 -9.742188 2.800781 -9.394531 3.152344 -9.394531 L 3.265625 -9.394531 C 3.558594 -9.511719 3.851562 -9.976562 4.257812 -10.503906 C 4.667969 -11.261719 5.132812 -12.136719 5.542969 -12.777344 C 7.410156 -12.894531 9.453125 -13.476562 9.683594 -13.535156 Z M 9.683594 -13.535156 "/></g></g></g><g fill="#f8f8f8" fill-opacity="1"><g transform="translate(117.179646, 85.058916)"><g><path d="M 3.792969 0.117188 C 7.933594 0.117188 11.960938 -5.484375 14.121094 -8.460938 C 14.878906 -9.570312 15.460938 -10.445312 15.8125 -10.910156 C 15.8125 -11.378906 15.460938 -11.550781 15.226562 -11.550781 C 15.167969 -11.550781 15.113281 -11.550781 15.113281 -11.492188 C 12.777344 -8.285156 7.933594 -1.808594 3.675781 -1.808594 C 1.984375 -1.984375 2.332031 -4.085938 3.324219 -6.476562 C 3.675781 -6.007812 4.316406 -5.777344 5.019531 -5.777344 C 7 -5.835938 9.394531 -8.808594 10.152344 -10.617188 L 10.152344 -10.734375 C 10.328125 -11.027344 10.386719 -11.378906 10.503906 -11.785156 C 10.851562 -13.652344 9.511719 -15.285156 7.703125 -15.285156 C 7.058594 -15.285156 6.359375 -15.113281 5.660156 -14.644531 C 2.042969 -12.253906 -2.332031 -5.25 1.109375 -1.109375 C 1.75 -0.234375 2.683594 0.117188 3.792969 0.117188 Z M 8.578125 -12.953125 C 8.808594 -12.953125 8.984375 -12.894531 9.101562 -12.71875 C 9.21875 -12.425781 9.160156 -12.078125 9.042969 -11.609375 C 8.167969 -9.511719 5.542969 -7.117188 4.375 -7.117188 C 4.085938 -7.117188 3.910156 -7.234375 3.792969 -7.527344 C 5.25 -10.269531 7.46875 -12.953125 8.578125 -12.953125 Z M 8.578125 -12.953125 "/></g></g></g><g fill="#f8f8f8" fill-opacity="1"><g transform="translate(128.673321, 85.058916)"><g><path d="M 10.269531 -18.378906 C 10.09375 -18.613281 9.800781 -18.84375 9.570312 -19.078125 C 10.386719 -20.421875 11.027344 -21.703125 11.4375 -22.8125 C 11.785156 -23.804688 11.378906 -26.429688 10.035156 -26.3125 C 7.585938 -26.136719 4.84375 -21.761719 7.761719 -18.84375 C 5.953125 -15.8125 3.910156 -11.902344 2.625 -10.152344 C 2.566406 -10.035156 2.625 -9.453125 3.035156 -9.453125 C 3.152344 -9.453125 3.324219 -9.511719 3.675781 -9.742188 C 5.019531 -11.4375 6.242188 -14.121094 8.75 -17.796875 C 8.925781 -17.5625 9.101562 -17.328125 9.160156 -17.152344 C 10.503906 -14.585938 3.09375 -5.542969 3.210938 -1.109375 C 3.210938 0.234375 3.851562 2.390625 5.542969 2.390625 C 5.71875 2.390625 5.835938 2.332031 6.007812 2.277344 C 9.101562 0.757812 15.636719 -9.859375 16.453125 -10.96875 C 16.570312 -11.144531 16.453125 -11.4375 16.21875 -11.550781 C 16.101562 -11.609375 16.046875 -11.667969 15.929688 -11.667969 C 15.8125 -11.667969 15.753906 -11.609375 15.578125 -11.492188 C 14.234375 -9.683594 7.527344 0.640625 5.835938 0.351562 C 6.769531 -3.035156 10.328125 -9.101562 11.144531 -11.378906 C 12.019531 -13.535156 12.71875 -16.804688 10.269531 -18.378906 Z M 9.859375 -23.863281 C 10.152344 -23.863281 10.210938 -23.511719 9.859375 -22.578125 C 9.628906 -21.820312 9.21875 -21.003906 8.808594 -20.363281 C 7.761719 -21.761719 9.335938 -23.863281 9.859375 -23.863281 Z M 9.859375 -23.863281 "/></g></g></g><g clip-path="url(#id1)"><g clip-path="url(#id2)"><g clip-path="url(#id3)"><path fill="#ff1616" d="M 17.566406 92.398438 C 15.75 92.832031 14.398438 93.425781 13.859375 94.050781 C 11.835938 96.386719 20.730469 96.78125 21.746094 95.808594 C 19.765625 95.875 18.714844 95.734375 18.085938 95.554688 C 37.351562 90.007812 101.425781 89.753906 133.320312 92.367188 C 129.300781 88.019531 44.34375 86.007812 17.566406 92.402344 Z M 17.566406 92.398438 " fill-opacity="1" fill-rule="nonzero"/></g></g></g><g fill="#ffffff" fill-opacity="1"><g transform="translate(93.91646, 103.1528)"><g><path d="M 1.953125 0.078125 C 1.609375 0.078125 1.273438 0.03125 0.953125 -0.0625 C 0.628906 -0.15625 0.367188 -0.28125 0.171875 -0.4375 L 0.515625 -1.1875 C 0.703125 -1.050781 0.925781 -0.941406 1.1875 -0.859375 C 1.445312 -0.773438 1.707031 -0.734375 1.96875 -0.734375 C 2.25 -0.734375 2.457031 -0.773438 2.59375 -0.859375 C 2.738281 -0.953125 2.8125 -1.066406 2.8125 -1.203125 C 2.8125 -1.304688 2.769531 -1.390625 2.6875 -1.453125 C 2.601562 -1.523438 2.5 -1.582031 2.375 -1.625 C 2.25 -1.664062 2.078125 -1.710938 1.859375 -1.765625 C 1.523438 -1.847656 1.25 -1.925781 1.03125 -2 C 0.820312 -2.082031 0.640625 -2.210938 0.484375 -2.390625 C 0.335938 -2.566406 0.265625 -2.800781 0.265625 -3.09375 C 0.265625 -3.34375 0.332031 -3.570312 0.46875 -3.78125 C 0.601562 -3.988281 0.804688 -4.148438 1.078125 -4.265625 C 1.359375 -4.390625 1.703125 -4.453125 2.109375 -4.453125 C 2.390625 -4.453125 2.660156 -4.414062 2.921875 -4.34375 C 3.191406 -4.28125 3.425781 -4.1875 3.625 -4.0625 L 3.3125 -3.296875 C 2.90625 -3.523438 2.5 -3.640625 2.09375 -3.640625 C 1.8125 -3.640625 1.601562 -3.59375 1.46875 -3.5 C 1.332031 -3.40625 1.265625 -3.285156 1.265625 -3.140625 C 1.265625 -2.984375 1.34375 -2.867188 1.5 -2.796875 C 1.65625 -2.722656 1.894531 -2.65625 2.21875 -2.59375 C 2.550781 -2.507812 2.820312 -2.425781 3.03125 -2.34375 C 3.25 -2.269531 3.429688 -2.144531 3.578125 -1.96875 C 3.734375 -1.800781 3.8125 -1.570312 3.8125 -1.28125 C 3.8125 -1.03125 3.738281 -0.800781 3.59375 -0.59375 C 3.457031 -0.382812 3.25 -0.21875 2.96875 -0.09375 C 2.695312 0.0195312 2.359375 0.078125 1.953125 0.078125 Z M 1.953125 0.078125 "/></g></g></g><g fill="#ffffff" fill-opacity="1"><g transform="translate(100.926005, 103.1528)"><g><path d="M 2.640625 0.078125 C 2.179688 0.078125 1.769531 -0.0195312 1.40625 -0.21875 C 1.039062 -0.414062 0.753906 -0.6875 0.546875 -1.03125 C 0.347656 -1.375 0.25 -1.757812 0.25 -2.1875 C 0.25 -2.613281 0.347656 -3 0.546875 -3.34375 C 0.753906 -3.6875 1.039062 -3.957031 1.40625 -4.15625 C 1.769531 -4.351562 2.179688 -4.453125 2.640625 -4.453125 C 3.085938 -4.453125 3.492188 -4.351562 3.859375 -4.15625 C 4.222656 -3.957031 4.507812 -3.6875 4.71875 -3.34375 C 4.925781 -3 5.03125 -2.613281 5.03125 -2.1875 C 5.03125 -1.757812 4.925781 -1.375 4.71875 -1.03125 C 4.507812 -0.6875 4.222656 -0.414062 3.859375 -0.21875 C 3.492188 -0.0195312 3.085938 0.078125 2.640625 0.078125 Z M 2.640625 -0.78125 C 2.898438 -0.78125 3.132812 -0.835938 3.34375 -0.953125 C 3.550781 -1.078125 3.710938 -1.242188 3.828125 -1.453125 C 3.941406 -1.671875 4 -1.914062 4 -2.1875 C 4 -2.457031 3.941406 -2.695312 3.828125 -2.90625 C 3.710938 -3.125 3.550781 -3.289062 3.34375 -3.40625 C 3.132812 -3.53125 2.898438 -3.59375 2.640625 -3.59375 C 2.378906 -3.59375 2.144531 -3.53125 1.9375 -3.40625 C 1.726562 -3.289062 1.5625 -3.125 1.4375 -2.90625 C 1.320312 -2.695312 1.265625 -2.457031 1.265625 -2.1875 C 1.265625 -1.914062 1.320312 -1.671875 1.4375 -1.453125 C 1.5625 -1.242188 1.726562 -1.078125 1.9375 -0.953125 C 2.144531 -0.835938 2.378906 -0.78125 2.640625 -0.78125 Z M 2.640625 -0.78125 "/></g></g></g><g fill="#ffffff" fill-opacity="1"><g transform="translate(109.223372, 103.1528)"><g><path d="M 2.609375 0.078125 C 2.160156 0.078125 1.753906 -0.015625 1.390625 -0.203125 C 1.035156 -0.398438 0.753906 -0.671875 0.546875 -1.015625 C 0.347656 -1.359375 0.25 -1.75 0.25 -2.1875 C 0.25 -2.625 0.347656 -3.015625 0.546875 -3.359375 C 0.753906 -3.703125 1.035156 -3.96875 1.390625 -4.15625 C 1.753906 -4.351562 2.164062 -4.453125 2.625 -4.453125 C 3 -4.453125 3.335938 -4.382812 3.640625 -4.25 C 3.953125 -4.113281 4.210938 -3.921875 4.421875 -3.671875 L 3.765625 -3.078125 C 3.472656 -3.421875 3.109375 -3.59375 2.671875 -3.59375 C 2.398438 -3.59375 2.15625 -3.53125 1.9375 -3.40625 C 1.726562 -3.289062 1.5625 -3.125 1.4375 -2.90625 C 1.320312 -2.695312 1.265625 -2.457031 1.265625 -2.1875 C 1.265625 -1.914062 1.320312 -1.671875 1.4375 -1.453125 C 1.5625 -1.242188 1.726562 -1.078125 1.9375 -0.953125 C 2.15625 -0.835938 2.398438 -0.78125 2.671875 -0.78125 C 3.109375 -0.78125 3.472656 -0.957031 3.765625 -1.3125 L 4.421875 -0.703125 C 4.210938 -0.453125 3.953125 -0.257812 3.640625 -0.125 C 3.335938 0.0078125 2.992188 0.078125 2.609375 0.078125 Z M 2.609375 0.078125 "/></g></g></g><g fill="#ffffff" fill-opacity="1"><g transform="translate(116.826819, 103.1528)"><g><path d="M 0.515625 -4.375 L 1.53125 -4.375 L 1.53125 0 L 0.515625 0 Z M 0.515625 -4.375 "/></g></g></g><g fill="#ffffff" fill-opacity="1"><g transform="translate(121.89838, 103.1528)"><g><path d="M 3.40625 -0.9375 L 1.375 -0.9375 L 0.984375 0 L -0.0625 0 L 1.890625 -4.375 L 2.890625 -4.375 L 4.84375 0 L 3.78125 0 Z M 3.078125 -1.703125 L 2.390625 -3.375 L 1.6875 -1.703125 Z M 3.078125 -1.703125 "/></g></g></g><g fill="#ffffff" fill-opacity="1"><g transform="translate(129.708124, 103.1528)"><g><path d="M 0.515625 -4.375 L 1.53125 -4.375 L 1.53125 -0.828125 L 3.71875 -0.828125 L 3.71875 0 L 0.515625 0 Z M 0.515625 -4.375 "/></g></g></g><g fill="#ffffff" fill-opacity="1"><g transform="translate(80.478335, 112.530183)"><g><path d="M 4.53125 -4.375 L 4.53125 0 L 3.703125 0 L 1.515625 -2.65625 L 1.515625 0 L 0.515625 0 L 0.515625 -4.375 L 1.359375 -4.375 L 3.53125 -1.71875 L 3.53125 -4.375 Z M 4.53125 -4.375 "/></g></g></g><g fill="#ffffff" fill-opacity="1"><g transform="translate(88.550646, 112.530183)"><g><path d="M 3.90625 -0.8125 L 3.90625 0 L 0.515625 0 L 0.515625 -4.375 L 3.828125 -4.375 L 3.828125 -3.5625 L 1.53125 -3.5625 L 1.53125 -2.609375 L 3.5625 -2.609375 L 3.5625 -1.828125 L 1.53125 -1.828125 L 1.53125 -0.8125 Z M 3.90625 -0.8125 "/></g></g></g><g fill="#ffffff" fill-opacity="1"><g transform="translate(95.766496, 112.530183)"><g><path d="M 1.421875 -3.546875 L 0.03125 -3.546875 L 0.03125 -4.375 L 3.84375 -4.375 L 3.84375 -3.546875 L 2.4375 -3.546875 L 2.4375 0 L 1.421875 0 Z M 1.421875 -3.546875 "/></g></g></g><g fill="#ffffff" fill-opacity="1"><g transform="translate(102.65101, 112.530183)"><g><path d="M 7.125 -4.375 L 5.703125 0 L 4.609375 0 L 3.65625 -2.96875 L 2.65625 0 L 1.578125 0 L 0.140625 -4.375 L 1.1875 -4.375 L 2.171875 -1.296875 L 3.203125 -4.375 L 4.140625 -4.375 L 5.140625 -1.28125 L 6.15625 -4.375 Z M 7.125 -4.375 "/></g></g></g><g fill="#ffffff" fill-opacity="1"><g transform="translate(112.942629, 112.530183)"><g><path d="M 2.640625 0.078125 C 2.179688 0.078125 1.769531 -0.0195312 1.40625 -0.21875 C 1.039062 -0.414062 0.753906 -0.6875 0.546875 -1.03125 C 0.347656 -1.375 0.25 -1.757812 0.25 -2.1875 C 0.25 -2.613281 0.347656 -3 0.546875 -3.34375 C 0.753906 -3.6875 1.039062 -3.957031 1.40625 -4.15625 C 1.769531 -4.351562 2.179688 -4.453125 2.640625 -4.453125 C 3.085938 -4.453125 3.492188 -4.351562 3.859375 -4.15625 C 4.222656 -3.957031 4.507812 -3.6875 4.71875 -3.34375 C 4.925781 -3 5.03125 -2.613281 5.03125 -2.1875 C 5.03125 -1.757812 4.925781 -1.375 4.71875 -1.03125 C 4.507812 -0.6875 4.222656 -0.414062 3.859375 -0.21875 C 3.492188 -0.0195312 3.085938 0.078125 2.640625 0.078125 Z M 2.640625 -0.78125 C 2.898438 -0.78125 3.132812 -0.835938 3.34375 -0.953125 C 3.550781 -1.078125 3.710938 -1.242188 3.828125 -1.453125 C 3.941406 -1.671875 4 -1.914062 4 -2.1875 C 4 -2.457031 3.941406 -2.695312 3.828125 -2.90625 C 3.710938 -3.125 3.550781 -3.289062 3.34375 -3.40625 C 3.132812 -3.53125 2.898438 -3.59375 2.640625 -3.59375 C 2.378906 -3.59375 2.144531 -3.53125 1.9375 -3.40625 C 1.726562 -3.289062 1.5625 -3.125 1.4375 -2.90625 C 1.320312 -2.695312 1.265625 -2.457031 1.265625 -2.1875 C 1.265625 -1.914062 1.320312 -1.671875 1.4375 -1.453125 C 1.5625 -1.242188 1.726562 -1.078125 1.9375 -0.953125 C 2.144531 -0.835938 2.378906 -0.78125 2.640625 -0.78125 Z M 2.640625 -0.78125 "/></g></g></g><g fill="#ffffff" fill-opacity="1"><g transform="translate(121.239994, 112.530183)"><g><path d="M 3.3125 0 L 2.46875 -1.21875 L 1.53125 -1.21875 L 1.53125 0 L 0.515625 0 L 0.515625 -4.375 L 2.40625 -4.375 C 2.800781 -4.375 3.140625 -4.304688 3.421875 -4.171875 C 3.703125 -4.046875 3.921875 -3.863281 4.078125 -3.625 C 4.234375 -3.394531 4.3125 -3.113281 4.3125 -2.78125 C 4.3125 -2.457031 4.234375 -2.175781 4.078125 -1.9375 C 3.921875 -1.707031 3.695312 -1.53125 3.40625 -1.40625 L 4.390625 0 Z M 3.28125 -2.78125 C 3.28125 -3.03125 3.203125 -3.21875 3.046875 -3.34375 C 2.890625 -3.476562 2.660156 -3.546875 2.359375 -3.546875 L 1.53125 -3.546875 L 1.53125 -2.03125 L 2.359375 -2.03125 C 2.660156 -2.03125 2.890625 -2.09375 3.046875 -2.21875 C 3.203125 -2.351562 3.28125 -2.539062 3.28125 -2.78125 Z M 3.28125 -2.78125 "/></g></g></g><g fill="#ffffff" fill-opacity="1"><g transform="translate(128.855943, 112.530183)"><g><path d="M 2.109375 -1.71875 L 1.53125 -1.109375 L 1.53125 0 L 0.515625 0 L 0.515625 -4.375 L 1.53125 -4.375 L 1.53125 -2.328125 L 3.46875 -4.375 L 4.59375 -4.375 L 2.78125 -2.421875 L 4.6875 0 L 3.515625 0 Z M 2.109375 -1.71875 "/></g></g></g></svg>