<svg xmlns="http://www.w3.org/2000/svg" xmlns:xlink="http://www.w3.org/1999/xlink" width="900" zoomAndPan="magnify" viewBox="0 0 675 675.000002" height="900" preserveAspectRatio="xMidYMid meet" version="1.0"><defs><g/><clipPath id="id1"><path d="M 0.5 0 L 674.5 0 L 674.5 674 L 0.5 674 Z M 0.5 0 " clip-rule="nonzero"/></clipPath><clipPath id="id2"><path d="M 206.15625 120 L 468 120 L 468 416.648438 L 206.15625 416.648438 Z M 206.15625 120 " clip-rule="nonzero"/></clipPath><clipPath id="id3"><path d="M 241 119.339844 L 441 119.339844 L 441 297 L 241 297 Z M 241 119.339844 " clip-rule="nonzero"/></clipPath><clipPath id="id4"><path d="M 213.09375 260.859375 L 468.613281 260.859375 L 468.613281 410 L 213.09375 410 Z M 213.09375 260.859375 " clip-rule="nonzero"/></clipPath></defs><g clip-path="url(#id1)"><path fill="#ffffff" d="M 0.5 0 L 674.5 0 L 674.5 681.492188 L 0.5 681.492188 Z M 0.5 0 " fill-opacity="1" fill-rule="nonzero"/><path fill="#000000" d="M 0.5 0 L 674.5 0 L 674.5 674 L 0.5 674 Z M 0.5 0 " fill-opacity="1" fill-rule="nonzero"/><path fill="#ffffff" d="M 0.5 0 L 674.5 0 L 674.5 674 L 0.5 674 Z M 0.5 0 " fill-opacity="1" fill-rule="nonzero"/><path fill="#000000" d="M 0.5 0 L 674.5 0 L 674.5 674 L 0.5 674 Z M 0.5 0 " fill-opacity="1" fill-rule="nonzero"/></g><g clip-path="url(#id2)"><path fill="#100f0d" d="M 467.417969 332.894531 L 461.527344 332.894531 L 461.527344 331.707031 L 440.28125 331.707031 L 440.28125 338.785156 L 441.472656 338.785156 L 441.472656 339.972656 L 440.28125 339.972656 L 440.28125 338.785156 L 426.113281 338.785156 L 426.113281 339.972656 L 424.925781 339.972656 L 424.925781 338.785156 L 426.113281 338.785156 L 426.113281 331.707031 L 424.925781 331.707031 L 424.925781 330.519531 L 432.003906 330.519531 L 432.003906 323.4375 L 439.09375 323.4375 L 439.09375 309.277344 L 446.171875 309.277344 L 446.171875 295.125 L 453.253906 295.125 L 453.253906 276.257812 L 441.472656 276.257812 L 441.472656 283.34375 L 427.304688 283.34375 L 427.304688 290.417969 L 417.835938 290.417969 L 417.835938 260.917969 L 419.027344 260.917969 L 419.027344 259.730469 L 424.925781 259.730469 L 424.925781 232.601562 L 426.113281 232.601562 L 426.113281 225.523438 L 417.835938 225.523438 L 417.835938 217.253906 L 424.925781 217.253906 L 424.925781 198.394531 L 419.027344 198.394531 L 419.027344 183.046875 L 411.949219 183.046875 L 411.949219 184.234375 L 410.757812 184.234375 L 410.757812 175.96875 L 411.949219 175.96875 L 411.949219 174.78125 L 417.835938 174.78125 L 417.835938 163 L 411.949219 163 L 411.949219 161.8125 L 410.757812 161.8125 L 410.757812 134.6875 L 406.054688 134.6875 L 406.054688 161.8125 L 404.867188 161.8125 L 404.867188 170.074219 L 389.507812 170.074219 L 389.507812 148.839844 L 382.421875 148.839844 L 382.421875 141.761719 L 377.722656 141.761719 L 377.722656 153.542969 L 384.804688 153.542969 L 384.804688 163 L 376.53125 163 L 376.53125 161.8125 L 369.453125 161.8125 L 369.453125 163 L 368.261719 163 L 368.261719 148.839844 L 363.554688 148.839844 L 363.554688 155.921875 L 356.476562 155.921875 L 356.476562 163 L 347.011719 163 L 347.011719 134.6875 L 342.308594 134.6875 L 342.308594 148.839844 L 334.039062 148.839844 L 334.039062 147.652344 L 326.953125 147.652344 L 326.953125 161.8125 L 328.140625 161.8125 L 328.140625 163 L 326.953125 163 L 326.953125 161.8125 L 319.871094 161.8125 L 319.871094 163 L 311.59375 163 L 311.59375 153.542969 L 318.683594 153.542969 L 318.683594 120.527344 L 313.972656 120.527344 L 313.972656 134.6875 L 306.894531 134.6875 L 306.894531 141.761719 L 292.726562 141.761719 L 292.726562 155.921875 L 291.539062 155.921875 L 291.539062 154.734375 L 284.457031 154.734375 L 284.457031 155.921875 L 283.265625 155.921875 L 283.265625 141.761719 L 278.5625 141.761719 L 278.5625 148.839844 L 271.480469 148.839844 L 271.480469 170.074219 L 264.402344 170.074219 L 264.402344 191.320312 L 257.3125 191.320312 L 257.3125 198.394531 L 249.042969 198.394531 L 249.042969 197.203125 L 247.855469 197.203125 L 247.855469 191.320312 L 243.152344 191.320312 L 243.152344 197.203125 L 241.960938 197.203125 L 241.960938 204.28125 L 243.152344 204.28125 L 243.152344 210.175781 L 249.042969 210.175781 L 249.042969 211.363281 L 250.234375 211.363281 L 250.234375 218.441406 L 249.042969 218.441406 L 249.042969 232.601562 L 250.234375 232.601562 L 250.234375 238.488281 L 256.121094 238.488281 L 256.121094 239.675781 L 257.3125 239.675781 L 257.3125 253.835938 L 256.121094 253.835938 L 256.121094 260.917969 L 263.210938 260.917969 L 263.210938 259.730469 L 264.402344 259.730469 L 264.402344 260.917969 L 263.210938 260.917969 L 263.210938 267.996094 L 271.480469 267.996094 L 271.480469 276.257812 L 264.402344 276.257812 L 264.402344 290.417969 L 254.933594 290.417969 L 254.933594 283.34375 L 240.773438 283.34375 L 240.773438 276.257812 L 228.984375 276.257812 L 228.984375 295.125 L 236.066406 295.125 L 236.066406 309.277344 L 250.234375 309.277344 L 250.234375 331.707031 L 249.042969 331.707031 L 249.042969 338.785156 L 250.234375 338.785156 L 250.234375 339.972656 L 249.042969 339.972656 L 249.042969 338.785156 L 234.875 338.785156 L 234.875 339.972656 L 233.6875 339.972656 L 233.6875 338.785156 L 234.875 338.785156 L 234.875 331.707031 L 206.550781 331.707031 L 206.550781 338.785156 L 214.816406 338.785156 L 214.816406 358.828125 L 221.898438 358.828125 L 221.898438 365.90625 L 236.066406 365.90625 L 236.066406 367.097656 L 234.875 367.097656 L 234.875 374.179688 L 250.234375 374.179688 L 250.234375 380.066406 L 264.402344 380.066406 L 264.402344 387.148438 L 271.480469 387.148438 L 271.480469 388.335938 L 270.289062 388.335938 L 270.289062 402.488281 L 271.480469 402.488281 L 271.480469 403.679688 L 270.289062 403.679688 L 270.289062 402.488281 L 263.210938 402.488281 L 263.210938 409.574219 L 270.289062 409.574219 L 270.289062 408.386719 L 271.480469 408.386719 L 271.480469 409.574219 L 270.289062 409.574219 L 270.289062 416.648438 L 284.457031 416.648438 L 284.457031 409.574219 L 283.265625 409.574219 L 283.265625 408.386719 L 284.457031 408.386719 L 284.457031 409.574219 L 298.625 409.574219 L 298.625 408.386719 L 311.59375 408.386719 L 311.59375 402.488281 L 312.785156 402.488281 L 312.785156 401.300781 L 328.140625 401.300781 L 328.140625 408.386719 L 354.097656 408.386719 L 354.097656 401.300781 L 369.453125 401.300781 L 369.453125 402.488281 L 370.644531 402.488281 L 370.644531 408.386719 L 383.613281 408.386719 L 383.613281 409.574219 L 397.78125 409.574219 L 397.78125 408.386719 L 398.96875 408.386719 L 398.96875 409.574219 L 397.78125 409.574219 L 397.78125 416.648438 L 411.949219 416.648438 L 411.949219 409.574219 L 410.757812 409.574219 L 410.757812 408.386719 L 411.949219 408.386719 L 411.949219 409.574219 L 419.027344 409.574219 L 419.027344 402.488281 L 411.949219 402.488281 L 411.949219 403.679688 L 410.757812 403.679688 L 410.757812 402.488281 L 411.949219 402.488281 L 411.949219 388.335938 L 410.757812 388.335938 L 410.757812 387.148438 L 417.835938 387.148438 L 417.835938 380.066406 L 432.003906 380.066406 L 432.003906 374.179688 L 447.359375 374.179688 L 447.359375 367.097656 L 446.171875 367.097656 L 446.171875 365.90625 L 453.253906 365.90625 L 453.253906 358.828125 L 460.339844 358.828125 L 460.339844 338.785156 L 461.527344 338.785156 L 461.527344 337.59375 L 467.417969 337.59375 Z M 432.003906 219.628906 L 427.304688 219.628906 L 427.304688 224.335938 L 432.003906 224.335938 Z M 432.003906 191.320312 L 427.304688 191.320312 L 427.304688 196.015625 L 432.003906 196.015625 Z M 439.09375 217.253906 L 434.382812 217.253906 L 434.382812 212.554688 L 439.09375 212.554688 L 439.09375 217.253906 " fill-opacity="1" fill-rule="nonzero"/></g><path fill="#bd202c" d="M 284.457031 303.386719 L 291.539062 303.386719 L 291.539062 296.3125 L 284.457031 296.3125 Z M 298.625 275.070312 L 291.539062 275.070312 L 291.539062 282.152344 L 298.625 282.152344 Z M 291.539062 289.230469 L 291.539062 296.3125 L 298.625 296.3125 L 298.625 289.230469 Z M 305.707031 303.386719 L 305.707031 296.3125 L 298.625 296.3125 L 298.625 303.386719 Z M 319.871094 275.070312 L 312.785156 275.070312 L 312.785156 282.152344 L 319.871094 282.152344 Z M 319.871094 296.3125 L 312.785156 296.3125 L 312.785156 303.386719 L 319.871094 303.386719 Z M 319.871094 331.707031 L 326.953125 331.707031 L 326.953125 324.625 L 305.707031 324.625 L 305.707031 338.785156 L 312.785156 338.785156 L 312.785156 331.707031 Z M 312.785156 338.785156 L 312.785156 345.859375 L 319.871094 345.859375 L 319.871094 338.785156 Z M 334.039062 338.785156 L 334.039062 331.707031 L 326.953125 331.707031 L 326.953125 338.785156 Z M 348.199219 338.785156 L 355.285156 338.785156 L 355.285156 331.707031 L 348.199219 331.707031 Z M 348.199219 345.859375 L 319.871094 345.859375 L 319.871094 352.945312 L 362.367188 352.945312 L 362.367188 345.859375 Z M 369.453125 275.070312 L 362.367188 275.070312 L 362.367188 282.152344 L 369.453125 282.152344 Z M 369.453125 303.386719 L 369.453125 296.3125 L 362.367188 296.3125 L 362.367188 310.464844 L 369.453125 310.464844 Z M 362.367188 324.625 L 355.285156 324.625 L 355.285156 331.707031 L 369.453125 331.707031 L 369.453125 338.785156 L 376.53125 338.785156 L 376.53125 324.625 Z M 362.367188 345.859375 L 369.453125 345.859375 L 369.453125 338.785156 L 362.367188 338.785156 Z M 383.613281 239.675781 L 376.53125 239.675781 L 376.53125 246.761719 L 383.613281 246.761719 Z M 376.53125 303.386719 L 383.613281 303.386719 L 383.613281 296.3125 L 376.53125 296.3125 Z M 376.53125 324.625 L 383.613281 324.625 L 383.613281 317.546875 L 376.53125 317.546875 Z M 383.613281 282.152344 L 390.699219 282.152344 L 390.699219 275.070312 L 383.613281 275.070312 Z M 383.613281 296.3125 L 390.699219 296.3125 L 390.699219 289.230469 L 383.613281 289.230469 Z M 383.613281 317.546875 L 390.699219 317.546875 L 390.699219 310.464844 L 383.613281 310.464844 Z M 397.78125 246.761719 L 397.78125 253.835938 L 390.699219 253.835938 L 390.699219 246.761719 L 397.78125 246.761719 " fill-opacity="1" fill-rule="nonzero"/><path fill="#ffffff" d="M 312.785156 282.152344 L 305.707031 282.152344 L 305.707031 289.230469 L 312.785156 289.230469 Z M 312.785156 310.464844 L 305.707031 310.464844 L 305.707031 303.386719 L 298.625 303.386719 L 298.625 296.3125 L 291.539062 296.3125 L 291.539062 303.386719 L 277.371094 303.386719 L 277.371094 296.3125 L 270.289062 296.3125 L 270.289062 275.070312 L 263.210938 275.070312 L 263.210938 303.386719 L 270.289062 303.386719 L 270.289062 310.464844 L 291.539062 310.464844 L 291.539062 324.625 L 298.625 324.625 L 298.625 331.707031 L 305.707031 331.707031 L 305.707031 324.625 L 319.871094 324.625 L 319.871094 317.546875 L 312.785156 317.546875 Z M 305.707031 338.785156 L 305.707031 345.859375 L 312.785156 345.859375 L 312.785156 338.785156 Z M 312.785156 310.464844 L 319.871094 310.464844 L 319.871094 303.386719 L 312.785156 303.386719 Z M 319.871094 345.859375 L 362.367188 345.859375 L 362.367188 338.785156 L 369.453125 338.785156 L 369.453125 331.707031 L 355.285156 331.707031 L 355.285156 338.785156 L 326.953125 338.785156 L 326.953125 331.707031 L 312.785156 331.707031 L 312.785156 338.785156 L 319.871094 338.785156 Z M 362.367188 352.945312 L 319.871094 352.945312 L 319.871094 345.859375 L 312.785156 345.859375 L 312.785156 360.019531 L 319.871094 360.019531 L 319.871094 367.097656 L 326.953125 367.097656 L 326.953125 374.179688 L 355.285156 374.179688 L 355.285156 367.097656 L 362.367188 367.097656 L 362.367188 360.019531 L 369.453125 360.019531 L 369.453125 345.859375 L 362.367188 345.859375 Z M 376.53125 282.152344 L 369.453125 282.152344 L 369.453125 289.230469 L 376.53125 289.230469 Z M 369.453125 317.546875 L 362.367188 317.546875 L 362.367188 324.625 L 376.53125 324.625 L 376.53125 317.546875 Z M 369.453125 345.859375 L 376.53125 345.859375 L 376.53125 338.785156 L 369.453125 338.785156 Z M 376.53125 331.707031 L 383.613281 331.707031 L 383.613281 324.625 L 376.53125 324.625 Z M 390.699219 324.625 L 390.699219 317.546875 L 383.613281 317.546875 L 383.613281 324.625 Z M 397.78125 282.152344 L 397.78125 253.835938 L 390.699219 253.835938 L 390.699219 246.761719 L 397.78125 246.761719 L 397.78125 232.601562 L 376.53125 232.601562 L 376.53125 239.675781 L 383.613281 239.675781 L 383.613281 246.761719 L 376.53125 246.761719 L 376.53125 239.675781 L 369.453125 239.675781 L 369.453125 246.761719 L 362.367188 246.761719 L 362.367188 253.835938 L 319.871094 253.835938 L 319.871094 246.761719 L 312.785156 246.761719 L 312.785156 239.675781 L 305.707031 239.675781 L 305.707031 232.601562 L 284.457031 232.601562 L 284.457031 282.152344 L 277.371094 282.152344 L 277.371094 289.230469 L 284.457031 289.230469 L 284.457031 296.3125 L 291.539062 296.3125 L 291.539062 267.996094 L 298.625 267.996094 L 298.625 275.070312 L 305.707031 275.070312 L 305.707031 260.917969 L 312.785156 260.917969 L 312.785156 275.070312 L 319.871094 275.070312 L 319.871094 289.230469 L 326.953125 289.230469 L 326.953125 296.3125 L 319.871094 296.3125 L 319.871094 303.386719 L 326.953125 303.386719 L 326.953125 310.464844 L 319.871094 310.464844 L 319.871094 317.546875 L 326.953125 317.546875 L 326.953125 324.625 L 334.039062 324.625 L 334.039062 331.707031 L 348.199219 331.707031 L 348.199219 324.625 L 355.285156 324.625 L 355.285156 317.546875 L 362.367188 317.546875 L 362.367188 310.464844 L 355.285156 310.464844 L 355.285156 303.386719 L 362.367188 303.386719 L 362.367188 296.3125 L 355.285156 296.3125 L 355.285156 289.230469 L 362.367188 289.230469 L 362.367188 275.070312 L 369.453125 275.070312 L 369.453125 260.917969 L 376.53125 260.917969 L 376.53125 275.070312 L 383.613281 275.070312 L 383.613281 267.996094 L 390.699219 267.996094 L 390.699219 296.3125 L 383.613281 296.3125 L 383.613281 303.386719 L 376.53125 303.386719 L 376.53125 317.546875 L 383.613281 317.546875 L 383.613281 310.464844 L 397.78125 310.464844 L 397.78125 289.230469 L 404.867188 289.230469 L 404.867188 282.152344 Z M 419.027344 275.070312 L 419.027344 296.3125 L 411.949219 296.3125 L 411.949219 310.464844 L 404.867188 310.464844 L 404.867188 289.230469 L 411.949219 289.230469 L 411.949219 275.070312 L 419.027344 275.070312 " fill-opacity="1" fill-rule="nonzero"/><g clip-path="url(#id3)"><path fill="#bd202c" d="M 241.960938 190.128906 L 241.960938 197.203125 L 249.042969 197.203125 L 249.042969 190.128906 Z M 241.960938 204.28125 L 241.960938 211.363281 L 249.042969 211.363281 L 249.042969 204.28125 Z M 249.042969 211.363281 L 249.042969 218.441406 L 256.121094 218.441406 L 256.121094 211.363281 Z M 249.042969 232.601562 L 249.042969 239.675781 L 256.121094 239.675781 L 256.121094 232.601562 Z M 263.210938 239.675781 L 256.121094 239.675781 L 256.121094 253.835938 L 263.210938 253.835938 L 263.210938 260.917969 L 277.371094 260.917969 L 277.371094 253.835938 L 270.289062 253.835938 L 270.289062 246.761719 L 263.210938 246.761719 Z M 270.289062 275.070312 L 270.289062 296.3125 L 277.371094 296.3125 L 277.371094 267.996094 L 270.289062 267.996094 Z M 404.867188 211.363281 L 404.867188 197.203125 L 411.949219 197.203125 L 411.949219 175.96875 L 404.867188 175.96875 L 404.867188 168.886719 L 390.699219 168.886719 L 390.699219 147.652344 L 383.613281 147.652344 L 383.613281 140.574219 L 376.53125 140.574219 L 376.53125 154.734375 L 383.613281 154.734375 L 383.613281 161.8125 L 376.53125 161.8125 L 376.53125 175.96875 L 369.453125 175.96875 L 369.453125 183.046875 L 362.367188 183.046875 L 362.367188 190.128906 L 355.285156 190.128906 L 355.285156 183.046875 L 362.367188 183.046875 L 362.367188 175.96875 L 369.453125 175.96875 L 369.453125 147.652344 L 362.367188 147.652344 L 362.367188 154.734375 L 355.285156 154.734375 L 355.285156 161.8125 L 348.199219 161.8125 L 348.199219 133.5 L 341.117188 133.5 L 341.117188 147.652344 L 334.039062 147.652344 L 334.039062 161.8125 L 326.953125 161.8125 L 326.953125 168.886719 L 319.871094 168.886719 L 319.871094 175.96875 L 312.785156 175.96875 L 312.785156 197.203125 L 319.871094 197.203125 L 319.871094 204.28125 L 326.953125 204.28125 L 326.953125 211.363281 L 319.871094 211.363281 L 319.871094 218.441406 L 312.785156 218.441406 L 312.785156 211.363281 L 319.871094 211.363281 L 319.871094 204.28125 L 312.785156 204.28125 L 312.785156 197.203125 L 305.707031 197.203125 L 305.707031 175.96875 L 312.785156 175.96875 L 312.785156 168.886719 L 319.871094 168.886719 L 319.871094 161.8125 L 312.785156 161.8125 L 312.785156 154.734375 L 319.871094 154.734375 L 319.871094 119.339844 L 312.785156 119.339844 L 312.785156 133.5 L 305.707031 133.5 L 305.707031 140.574219 L 291.539062 140.574219 L 291.539062 161.8125 L 284.457031 161.8125 L 284.457031 175.96875 L 277.371094 175.96875 L 277.371094 161.8125 L 284.457031 161.8125 L 284.457031 140.574219 L 277.371094 140.574219 L 277.371094 147.652344 L 270.289062 147.652344 L 270.289062 168.886719 L 263.210938 168.886719 L 263.210938 190.128906 L 256.121094 190.128906 L 256.121094 197.203125 L 249.042969 197.203125 L 249.042969 204.28125 L 256.121094 204.28125 L 256.121094 211.363281 L 270.289062 211.363281 L 270.289062 218.441406 L 256.121094 218.441406 L 256.121094 232.601562 L 263.210938 232.601562 L 263.210938 239.675781 L 270.289062 239.675781 L 270.289062 246.761719 L 277.371094 246.761719 L 277.371094 232.601562 L 284.457031 232.601562 L 284.457031 225.523438 L 291.539062 225.523438 L 291.539062 218.441406 L 284.457031 218.441406 L 284.457031 211.363281 L 277.371094 211.363281 L 277.371094 190.128906 L 284.457031 190.128906 L 284.457031 211.363281 L 291.539062 211.363281 L 291.539062 218.441406 L 298.625 218.441406 L 298.625 225.523438 L 305.707031 225.523438 L 305.707031 232.601562 L 312.785156 232.601562 L 312.785156 239.675781 L 326.953125 239.675781 L 326.953125 232.601562 L 334.039062 232.601562 L 334.039062 218.441406 L 341.117188 218.441406 L 341.117188 211.363281 L 348.199219 211.363281 L 348.199219 204.28125 L 355.285156 204.28125 L 355.285156 197.203125 L 362.367188 197.203125 L 362.367188 204.28125 L 355.285156 204.28125 L 355.285156 211.363281 L 348.199219 211.363281 L 348.199219 218.441406 L 341.117188 218.441406 L 341.117188 239.675781 L 355.285156 239.675781 L 355.285156 225.523438 L 362.367188 225.523438 L 362.367188 218.441406 L 369.453125 218.441406 L 369.453125 211.363281 L 376.53125 211.363281 L 376.53125 204.28125 L 383.613281 204.28125 L 383.613281 211.363281 L 376.53125 211.363281 L 376.53125 218.441406 L 369.453125 218.441406 L 369.453125 225.523438 L 362.367188 225.523438 L 362.367188 232.601562 L 376.53125 232.601562 L 376.53125 225.523438 L 390.699219 225.523438 L 390.699219 218.441406 L 397.78125 218.441406 L 397.78125 211.363281 Z M 411.949219 147.652344 L 411.949219 133.5 L 404.867188 133.5 L 404.867188 161.8125 L 411.949219 161.8125 Z M 404.867188 239.675781 L 404.867188 260.917969 L 411.949219 260.917969 L 411.949219 246.761719 L 419.027344 246.761719 L 419.027344 260.917969 L 426.113281 260.917969 L 426.113281 232.601562 L 411.949219 232.601562 L 411.949219 239.675781 Z M 419.027344 168.886719 L 419.027344 161.8125 L 411.949219 161.8125 L 411.949219 175.96875 L 419.027344 175.96875 Z M 411.949219 267.996094 L 404.867188 267.996094 L 404.867188 282.152344 L 411.949219 282.152344 L 411.949219 275.070312 L 419.027344 275.070312 L 419.027344 260.917969 L 411.949219 260.917969 Z M 426.113281 204.28125 L 426.113281 197.203125 L 419.027344 197.203125 L 419.027344 204.28125 L 411.949219 204.28125 L 411.949219 211.363281 L 404.867188 211.363281 L 404.867188 218.441406 L 397.78125 218.441406 L 397.78125 232.601562 L 411.949219 232.601562 L 411.949219 225.523438 L 419.027344 225.523438 L 419.027344 218.441406 L 426.113281 218.441406 Z M 433.195312 190.128906 L 426.113281 190.128906 L 426.113281 197.203125 L 433.195312 197.203125 Z M 426.113281 225.523438 L 433.195312 225.523438 L 433.195312 218.441406 L 426.113281 218.441406 Z M 440.28125 211.363281 L 440.28125 218.441406 L 433.195312 218.441406 L 433.195312 211.363281 L 440.28125 211.363281 " fill-opacity="1" fill-rule="nonzero"/></g><g clip-path="url(#id4)"><path fill="#7c1520" d="M 249.042969 352.945312 L 263.210938 352.945312 L 263.210938 345.859375 L 270.289062 345.859375 L 270.289062 338.785156 L 277.371094 338.785156 L 277.371094 331.707031 L 284.457031 331.707031 L 284.457031 324.625 L 277.371094 324.625 L 277.371094 310.464844 L 270.289062 310.464844 L 270.289062 303.386719 L 263.210938 303.386719 L 263.210938 289.230469 L 256.121094 289.230469 L 256.121094 282.152344 L 241.960938 282.152344 L 241.960938 275.070312 L 227.796875 275.070312 L 227.796875 296.3125 L 234.875 296.3125 L 234.875 310.464844 L 249.042969 310.464844 L 249.042969 331.707031 L 256.121094 331.707031 L 256.121094 338.785156 L 249.042969 338.785156 L 249.042969 345.859375 L 234.875 345.859375 L 234.875 338.785156 L 213.628906 338.785156 L 213.628906 360.019531 L 220.710938 360.019531 L 220.710938 367.097656 L 241.960938 367.097656 L 241.960938 360.019531 L 249.042969 360.019531 Z M 270.289062 388.335938 L 277.371094 388.335938 L 277.371094 374.179688 L 249.042969 374.179688 L 249.042969 381.253906 L 263.210938 381.253906 L 263.210938 388.335938 Z M 277.371094 345.859375 L 277.371094 352.945312 L 270.289062 352.945312 L 270.289062 360.019531 L 263.210938 360.019531 L 263.210938 367.097656 L 291.539062 367.097656 L 291.539062 374.179688 L 312.785156 374.179688 L 312.785156 367.097656 L 305.707031 367.097656 L 305.707031 360.019531 L 298.625 360.019531 L 298.625 345.859375 Z M 298.625 402.488281 L 298.625 409.574219 L 312.785156 409.574219 L 312.785156 402.488281 Z M 312.785156 267.996094 L 312.785156 260.917969 L 305.707031 260.917969 L 305.707031 275.070312 L 312.785156 275.070312 Z M 312.785156 303.386719 L 312.785156 296.3125 L 305.707031 296.3125 L 305.707031 310.464844 L 312.785156 310.464844 Z M 305.707031 381.253906 L 284.457031 381.253906 L 284.457031 395.414062 L 277.371094 395.414062 L 277.371094 402.488281 L 270.289062 402.488281 L 270.289062 409.574219 L 284.457031 409.574219 L 284.457031 402.488281 L 291.539062 402.488281 L 291.539062 395.414062 L 305.707031 395.414062 L 305.707031 388.335938 L 312.785156 388.335938 L 312.785156 381.253906 Z M 362.367188 381.253906 L 348.199219 381.253906 L 348.199219 388.335938 L 334.039062 388.335938 L 334.039062 381.253906 L 319.871094 381.253906 L 319.871094 388.335938 L 312.785156 388.335938 L 312.785156 402.488281 L 326.953125 402.488281 L 326.953125 409.574219 L 355.285156 409.574219 L 355.285156 402.488281 L 369.453125 402.488281 L 369.453125 388.335938 L 362.367188 388.335938 Z M 376.53125 267.996094 L 376.53125 260.917969 L 369.453125 260.917969 L 369.453125 275.070312 L 376.53125 275.070312 Z M 376.53125 310.464844 L 376.53125 296.3125 L 369.453125 296.3125 L 369.453125 317.546875 L 376.53125 317.546875 Z M 376.53125 409.574219 L 383.613281 409.574219 L 383.613281 402.488281 L 369.453125 402.488281 L 369.453125 409.574219 Z M 383.613281 374.179688 L 390.699219 374.179688 L 390.699219 367.097656 L 419.027344 367.097656 L 419.027344 360.019531 L 411.949219 360.019531 L 411.949219 352.945312 L 404.867188 352.945312 L 404.867188 345.859375 L 390.699219 345.859375 L 390.699219 352.945312 L 383.613281 352.945312 L 383.613281 360.019531 L 376.53125 360.019531 L 376.53125 367.097656 L 369.453125 367.097656 L 369.453125 374.179688 Z M 404.867188 395.414062 L 397.78125 395.414062 L 397.78125 381.253906 L 369.453125 381.253906 L 369.453125 388.335938 L 376.53125 388.335938 L 376.53125 395.414062 L 390.699219 395.414062 L 390.699219 402.488281 L 397.78125 402.488281 L 397.78125 409.574219 L 411.949219 409.574219 L 411.949219 402.488281 L 404.867188 402.488281 Z M 419.027344 374.179688 L 404.867188 374.179688 L 404.867188 388.335938 L 419.027344 388.335938 L 419.027344 381.253906 L 433.195312 381.253906 L 433.195312 374.179688 Z M 447.359375 338.785156 L 440.28125 338.785156 L 440.28125 345.859375 L 426.113281 345.859375 L 426.113281 338.785156 L 419.027344 338.785156 L 419.027344 331.707031 L 433.195312 331.707031 L 433.195312 324.625 L 440.28125 324.625 L 440.28125 310.464844 L 447.359375 310.464844 L 447.359375 296.3125 L 454.441406 296.3125 L 454.441406 275.070312 L 440.28125 275.070312 L 440.28125 282.152344 L 426.113281 282.152344 L 426.113281 289.230469 L 419.027344 289.230469 L 419.027344 296.3125 L 411.949219 296.3125 L 411.949219 310.464844 L 419.027344 310.464844 L 419.027344 303.386719 L 426.113281 303.386719 L 426.113281 310.464844 L 419.027344 310.464844 L 419.027344 317.546875 L 404.867188 317.546875 L 404.867188 324.625 L 397.78125 324.625 L 397.78125 331.707031 L 404.867188 331.707031 L 404.867188 338.785156 L 411.949219 338.785156 L 411.949219 345.859375 L 419.027344 345.859375 L 419.027344 352.945312 L 433.195312 352.945312 L 433.195312 360.019531 L 440.28125 360.019531 L 440.28125 367.097656 L 454.441406 367.097656 L 454.441406 360.019531 L 461.527344 360.019531 L 461.527344 338.785156 Z M 468.609375 331.707031 L 468.609375 338.785156 L 461.527344 338.785156 L 461.527344 331.707031 L 468.609375 331.707031 " fill-opacity="1" fill-rule="nonzero"/></g><g fill="#7c1520" fill-opacity="1"><g transform="translate(18.058269, 507.323836)"><g><path d="M 5.917969 0 L 53.246094 0 L 53.246094 -11.832031 L 17.75 -11.832031 L 17.75 -23.664062 L 53.246094 -23.664062 L 53.246094 -35.496094 L 17.75 -35.496094 L 17.75 -47.328125 L 53.246094 -47.328125 L 53.246094 -59.164062 L 5.917969 -59.164062 Z M 53.246094 -11.832031 L 65.078125 -11.832031 L 65.078125 -23.664062 L 53.246094 -23.664062 Z M 53.246094 -35.496094 L 65.078125 -35.496094 L 65.078125 -47.328125 L 53.246094 -47.328125 Z M 53.246094 -35.496094 "/></g></g></g><g fill="#7c1520" fill-opacity="1"><g transform="translate(89.045572, 507.323836)"><g><path d="M 17.75 0 L 65.078125 0 L 65.078125 -11.832031 L 17.75 -11.832031 Z M 5.917969 -11.832031 L 17.75 -11.832031 L 17.75 -59.164062 L 5.917969 -59.164062 Z M 5.917969 -11.832031 "/></g></g></g><g fill="#7c1520" fill-opacity="1"><g transform="translate(160.032875, 507.323836)"><g><path d="M 53.246094 -11.832031 L 17.75 -11.832031 L 17.75 0 L 53.246094 0 Z M 5.917969 -11.832031 L 17.75 -11.832031 L 17.75 -47.328125 L 5.917969 -47.328125 Z M 17.75 -47.328125 L 53.246094 -47.328125 L 53.246094 -59.164062 L 17.75 -59.164062 Z M 53.246094 -11.832031 L 65.078125 -11.832031 L 65.078125 -47.328125 L 53.246094 -47.328125 Z M 53.246094 -11.832031 "/></g></g></g><g fill="#7c1520" fill-opacity="1"><g transform="translate(231.020178, 507.323836)"><g><path d="M 53.246094 -11.832031 L 17.75 -11.832031 L 17.75 0 L 53.246094 0 Z M 5.917969 -11.832031 L 17.75 -11.832031 L 17.75 -47.328125 L 5.917969 -47.328125 Z M 17.75 -47.328125 L 53.246094 -47.328125 L 53.246094 -59.164062 L 17.75 -59.164062 Z M 53.246094 -11.832031 L 65.078125 -11.832031 L 65.078125 -47.328125 L 53.246094 -47.328125 Z M 53.246094 -11.832031 "/></g></g></g><g fill="#7c1520" fill-opacity="1"><g transform="translate(302.007481, 507.323836)"><g><path d="M 5.917969 0 L 53.246094 0 L 53.246094 -11.832031 L 17.75 -11.832031 L 17.75 -47.328125 L 53.246094 -47.328125 L 53.246094 -59.164062 L 5.917969 -59.164062 Z M 53.246094 -11.832031 L 65.078125 -11.832031 L 65.078125 -47.328125 L 53.246094 -47.328125 Z M 53.246094 -11.832031 "/></g></g></g><g fill="#7c1520" fill-opacity="1"><g transform="translate(372.994784, 507.323836)"><g><path d="M 17.75 0 L 65.078125 0 L 65.078125 -35.496094 L 29.582031 -35.496094 L 29.582031 -23.664062 L 53.246094 -23.664062 L 53.246094 -11.832031 L 17.75 -11.832031 Z M 5.917969 -11.832031 L 17.75 -11.832031 L 17.75 -47.328125 L 5.917969 -47.328125 Z M 17.75 -47.328125 L 65.078125 -47.328125 L 65.078125 -59.164062 L 17.75 -59.164062 Z M 17.75 -47.328125 "/></g></g></g><g fill="#7c1520" fill-opacity="1"><g transform="translate(443.982087, 507.323836)"><g><path d="M 5.917969 0 L 17.75 0 L 17.75 -11.832031 L 53.246094 -11.832031 L 53.246094 0 L 65.078125 0 L 65.078125 -47.328125 L 53.246094 -47.328125 L 53.246094 -23.664062 L 17.75 -23.664062 L 17.75 -47.328125 L 5.917969 -47.328125 Z M 17.75 -47.328125 L 53.246094 -47.328125 L 53.246094 -59.164062 L 17.75 -59.164062 Z M 17.75 -47.328125 "/></g></g></g><g fill="#7c1520" fill-opacity="1"><g transform="translate(514.969416, 507.323836)"><g><path d="M 29.582031 0 L 41.414062 0 L 41.414062 -47.328125 L 65.078125 -47.328125 L 65.078125 -59.164062 L 5.917969 -59.164062 L 5.917969 -47.328125 L 29.582031 -47.328125 Z M 29.582031 0 "/></g></g></g><g fill="#7c1520" fill-opacity="1"><g transform="translate(585.956695, 507.323836)"><g><path d="M 5.917969 0 L 65.078125 0 L 65.078125 -11.832031 L 17.75 -11.832031 L 17.75 -23.664062 L 53.246094 -23.664062 L 53.246094 -35.496094 L 17.75 -35.496094 L 17.75 -47.328125 L 65.078125 -47.328125 L 65.078125 -59.164062 L 5.917969 -59.164062 Z M 5.917969 0 "/></g></g></g><g fill="#ffffff" fill-opacity="1"><g transform="translate(157.018129, 550.331233)"><g><path d="M 12.359375 -12.875 L 7.546875 -12.875 L 7.546875 0 L 4.984375 0 L 4.984375 -12.875 L 0.1875 -12.875 L 0.1875 -15.171875 L 12.359375 -15.171875 Z M 12.359375 -12.875 "/></g></g></g><g fill="#ffffff" fill-opacity="1"><g transform="translate(171.7308, 550.331233)"><g><path d="M 15.15625 0 L 12.59375 0 L 12.59375 -6.28125 L 4.546875 -6.28125 L 4.546875 0 L 2 0 L 2 -15.171875 L 4.546875 -15.171875 L 4.546875 -8.578125 L 12.59375 -8.578125 L 12.59375 -15.171875 L 15.15625 -15.171875 Z M 15.15625 0 "/></g></g></g><g fill="#ffffff" fill-opacity="1"><g transform="translate(191.036867, 550.331233)"><g><path d="M 12.828125 -12.875 L 4.546875 -12.875 L 4.546875 -8.78125 L 11.96875 -8.78125 L 11.96875 -6.484375 L 4.546875 -6.484375 L 4.546875 -2.296875 L 13.09375 -2.296875 L 13.09375 0 L 2 0 L 2 -15.171875 L 12.828125 -15.171875 Z M 12.828125 -12.875 "/></g></g></g><g fill="#ffffff" fill-opacity="1"><g transform="translate(207.417911, 550.331233)"><g/></g></g><g fill="#ffffff" fill-opacity="1"><g transform="translate(215.175523, 550.331233)"><g><path d="M 17.59375 0 L 14.96875 0 L 11.375 -11.828125 L 7.734375 0 L 5.09375 0 L 0.0625 -15.171875 L 2.8125 -15.171875 L 6.5 -2.84375 L 10.15625 -15.15625 L 12.671875 -15.171875 L 16.359375 -2.84375 L 20.03125 -15.171875 L 22.671875 -15.171875 Z M 17.59375 0 "/></g></g></g><g fill="#ffffff" fill-opacity="1"><g transform="translate(239.789981, 550.331233)"><g><path d="M 4.546875 0 L 2 0 L 2 -15.171875 L 4.546875 -15.171875 Z M 4.546875 0 "/></g></g></g><g fill="#ffffff" fill-opacity="1"><g transform="translate(248.500945, 550.331233)"><g><path d="M 4.546875 -2.3125 L 11.125 -2.3125 L 11.125 0 L 2 0 L 2 -15.171875 L 4.546875 -15.171875 Z M 4.546875 -2.3125 "/></g></g></g><g fill="#ffffff" fill-opacity="1"><g transform="translate(262.238602, 550.331233)"><g><path d="M 2 -15.171875 L 8.21875 -15.171875 C 10.476562 -15.171875 12.347656 -14.453125 13.828125 -13.015625 C 15.316406 -11.585938 16.0625 -9.773438 16.0625 -7.578125 C 16.0625 -5.390625 15.316406 -3.578125 13.828125 -2.140625 C 12.335938 -0.710938 10.445312 0 8.15625 0 L 2 0 Z M 4.546875 -12.875 L 4.546875 -2.296875 L 8.28125 -2.296875 C 9.769531 -2.296875 11.007812 -2.789062 12 -3.78125 C 12.988281 -4.769531 13.484375 -6.03125 13.484375 -7.5625 C 13.484375 -9.09375 12.972656 -10.359375 11.953125 -11.359375 C 10.929688 -12.367188 9.671875 -12.875 8.171875 -12.875 Z M 4.546875 -12.875 "/></g></g></g><g fill="#ffffff" fill-opacity="1"><g transform="translate(281.197992, 550.331233)"><g><path d="M 17.59375 0 L 14.96875 0 L 11.375 -11.828125 L 7.734375 0 L 5.09375 0 L 0.0625 -15.171875 L 2.8125 -15.171875 L 6.5 -2.84375 L 10.15625 -15.15625 L 12.671875 -15.171875 L 16.359375 -2.84375 L 20.03125 -15.171875 L 22.671875 -15.171875 Z M 17.59375 0 "/></g></g></g><g fill="#ffffff" fill-opacity="1"><g transform="translate(305.812456, 550.331233)"><g><path d="M 3.046875 -13.03125 C 4.597656 -14.5 6.503906 -15.234375 8.765625 -15.234375 C 11.035156 -15.234375 12.941406 -14.5 14.484375 -13.03125 C 16.035156 -11.5625 16.8125 -9.742188 16.8125 -7.578125 C 16.8125 -5.410156 16.035156 -3.585938 14.484375 -2.109375 C 12.941406 -0.628906 11.035156 0.109375 8.765625 0.109375 C 6.503906 0.109375 4.597656 -0.628906 3.046875 -2.109375 C 1.503906 -3.585938 0.734375 -5.410156 0.734375 -7.578125 C 0.734375 -9.742188 1.503906 -11.5625 3.046875 -13.03125 Z M 8.796875 -12.9375 C 7.296875 -12.9375 6.007812 -12.421875 4.9375 -11.390625 C 3.875 -10.359375 3.34375 -9.085938 3.34375 -7.578125 C 3.34375 -6.078125 3.878906 -4.800781 4.953125 -3.75 C 6.023438 -2.707031 7.304688 -2.1875 8.796875 -2.1875 C 10.285156 -2.1875 11.554688 -2.707031 12.609375 -3.75 C 13.660156 -4.800781 14.1875 -6.078125 14.1875 -7.578125 C 14.1875 -9.085938 13.660156 -10.359375 12.609375 -11.390625 C 11.554688 -12.421875 10.285156 -12.9375 8.796875 -12.9375 Z M 8.796875 -12.9375 "/></g></g></g><g fill="#ffffff" fill-opacity="1"><g transform="translate(325.530202, 550.331233)"><g><path d="M 3.046875 -13.03125 C 4.597656 -14.5 6.503906 -15.234375 8.765625 -15.234375 C 11.035156 -15.234375 12.941406 -14.5 14.484375 -13.03125 C 16.035156 -11.5625 16.8125 -9.742188 16.8125 -7.578125 C 16.8125 -5.410156 16.035156 -3.585938 14.484375 -2.109375 C 12.941406 -0.628906 11.035156 0.109375 8.765625 0.109375 C 6.503906 0.109375 4.597656 -0.628906 3.046875 -2.109375 C 1.503906 -3.585938 0.734375 -5.410156 0.734375 -7.578125 C 0.734375 -9.742188 1.503906 -11.5625 3.046875 -13.03125 Z M 8.796875 -12.9375 C 7.296875 -12.9375 6.007812 -12.421875 4.9375 -11.390625 C 3.875 -10.359375 3.34375 -9.085938 3.34375 -7.578125 C 3.34375 -6.078125 3.878906 -4.800781 4.953125 -3.75 C 6.023438 -2.707031 7.304688 -2.1875 8.796875 -2.1875 C 10.285156 -2.1875 11.554688 -2.707031 12.609375 -3.75 C 13.660156 -4.800781 14.1875 -6.078125 14.1875 -7.578125 C 14.1875 -9.085938 13.660156 -10.359375 12.609375 -11.390625 C 11.554688 -12.421875 10.285156 -12.9375 8.796875 -12.9375 Z M 8.796875 -12.9375 "/></g></g></g><g fill="#ffffff" fill-opacity="1"><g transform="translate(345.247948, 550.331233)"><g><path d="M 2 -15.171875 L 8.21875 -15.171875 C 10.476562 -15.171875 12.347656 -14.453125 13.828125 -13.015625 C 15.316406 -11.585938 16.0625 -9.773438 16.0625 -7.578125 C 16.0625 -5.390625 15.316406 -3.578125 13.828125 -2.140625 C 12.335938 -0.710938 10.445312 0 8.15625 0 L 2 0 Z M 4.546875 -12.875 L 4.546875 -2.296875 L 8.28125 -2.296875 C 9.769531 -2.296875 11.007812 -2.789062 12 -3.78125 C 12.988281 -4.769531 13.484375 -6.03125 13.484375 -7.5625 C 13.484375 -9.09375 12.972656 -10.359375 11.953125 -11.359375 C 10.929688 -12.367188 9.671875 -12.875 8.171875 -12.875 Z M 4.546875 -12.875 "/></g></g></g><g fill="#ffffff" fill-opacity="1"><g transform="translate(364.207339, 550.331233)"><g/></g></g><g fill="#ffffff" fill-opacity="1"><g transform="translate(371.964957, 550.331233)"><g><path d="M 2 -15.171875 L 8.21875 -15.171875 C 10.476562 -15.171875 12.347656 -14.453125 13.828125 -13.015625 C 15.316406 -11.585938 16.0625 -9.773438 16.0625 -7.578125 C 16.0625 -5.390625 15.316406 -3.578125 13.828125 -2.140625 C 12.335938 -0.710938 10.445312 0 8.15625 0 L 2 0 Z M 4.546875 -12.875 L 4.546875 -2.296875 L 8.28125 -2.296875 C 9.769531 -2.296875 11.007812 -2.789062 12 -3.78125 C 12.988281 -4.769531 13.484375 -6.03125 13.484375 -7.5625 C 13.484375 -9.09375 12.972656 -10.359375 11.953125 -11.359375 C 10.929688 -12.367188 9.671875 -12.875 8.171875 -12.875 Z M 4.546875 -12.875 "/></g></g></g><g fill="#ffffff" fill-opacity="1"><g transform="translate(390.924347, 550.331233)"><g><path d="M 12.828125 -12.875 L 4.546875 -12.875 L 4.546875 -8.78125 L 11.96875 -8.78125 L 11.96875 -6.484375 L 4.546875 -6.484375 L 4.546875 -2.296875 L 13.09375 -2.296875 L 13.09375 0 L 2 0 L 2 -15.171875 L 12.828125 -15.171875 Z M 12.828125 -12.875 "/></g></g></g><g fill="#ffffff" fill-opacity="1"><g transform="translate(407.305397, 550.331233)"><g><path d="M 8.71875 -15.234375 C 9.78125 -15.234375 10.820312 -15.023438 11.84375 -14.609375 C 12.863281 -14.203125 13.742188 -13.628906 14.484375 -12.890625 L 12.984375 -11.03125 C 12.429688 -11.625 11.78125 -12.09375 11.03125 -12.4375 C 10.28125 -12.78125 9.519531 -12.953125 8.75 -12.953125 C 7.238281 -12.953125 5.957031 -12.4375 4.90625 -11.40625 C 3.863281 -10.375 3.34375 -9.113281 3.34375 -7.625 C 3.34375 -6.125 3.863281 -4.859375 4.90625 -3.828125 C 5.957031 -2.796875 7.238281 -2.28125 8.75 -2.28125 C 10.332031 -2.28125 11.742188 -2.878906 12.984375 -4.078125 L 14.5 -2.390625 C 13.71875 -1.617188 12.804688 -1.007812 11.765625 -0.5625 C 10.722656 -0.113281 9.675781 0.109375 8.625 0.109375 C 6.394531 0.109375 4.519531 -0.628906 3 -2.109375 C 1.488281 -3.585938 0.734375 -5.421875 0.734375 -7.609375 C 0.734375 -9.753906 1.503906 -11.5625 3.046875 -13.03125 C 4.585938 -14.5 6.476562 -15.234375 8.71875 -15.234375 Z M 8.71875 -15.234375 "/></g></g></g><g fill="#ffffff" fill-opacity="1"><g transform="translate(424.574784, 550.331233)"><g><path d="M 12.828125 -12.875 L 4.546875 -12.875 L 4.546875 -8.78125 L 11.96875 -8.78125 L 11.96875 -6.484375 L 4.546875 -6.484375 L 4.546875 -2.296875 L 13.09375 -2.296875 L 13.09375 0 L 2 0 L 2 -15.171875 L 12.828125 -15.171875 Z M 12.828125 -12.875 "/></g></g></g><g fill="#ffffff" fill-opacity="1"><g transform="translate(440.955834, 550.331233)"><g><path d="M 2 -15.171875 L 8.046875 -15.171875 C 9.953125 -15.171875 11.425781 -14.71875 12.46875 -13.8125 C 13.519531 -12.914062 14.046875 -11.640625 14.046875 -9.984375 C 14.046875 -8.265625 13.519531 -6.929688 12.46875 -5.984375 C 11.425781 -5.046875 9.953125 -4.578125 8.046875 -4.578125 L 4.546875 -4.578125 L 4.546875 0 L 2 0 Z M 4.546875 -12.875 L 4.546875 -6.875 L 7.9375 -6.875 C 10.375 -6.875 11.59375 -7.890625 11.59375 -9.921875 C 11.59375 -11.890625 10.375 -12.875 7.9375 -12.875 Z M 4.546875 -12.875 "/></g></g></g><g fill="#ffffff" fill-opacity="1"><g transform="translate(457.705197, 550.331233)"><g><path d="M 12.359375 -12.875 L 7.546875 -12.875 L 7.546875 0 L 4.984375 0 L 4.984375 -12.875 L 0.1875 -12.875 L 0.1875 -15.171875 L 12.359375 -15.171875 Z M 12.359375 -12.875 "/></g></g></g><g fill="#ffffff" fill-opacity="1"><g transform="translate(472.417875, 550.331233)"><g><path d="M 4.546875 0 L 2 0 L 2 -15.171875 L 4.546875 -15.171875 Z M 4.546875 0 "/></g></g></g><g fill="#ffffff" fill-opacity="1"><g transform="translate(481.128845, 550.331233)"><g><path d="M 3.046875 -13.03125 C 4.597656 -14.5 6.503906 -15.234375 8.765625 -15.234375 C 11.035156 -15.234375 12.941406 -14.5 14.484375 -13.03125 C 16.035156 -11.5625 16.8125 -9.742188 16.8125 -7.578125 C 16.8125 -5.410156 16.035156 -3.585938 14.484375 -2.109375 C 12.941406 -0.628906 11.035156 0.109375 8.765625 0.109375 C 6.503906 0.109375 4.597656 -0.628906 3.046875 -2.109375 C 1.503906 -3.585938 0.734375 -5.410156 0.734375 -7.578125 C 0.734375 -9.742188 1.503906 -11.5625 3.046875 -13.03125 Z M 8.796875 -12.9375 C 7.296875 -12.9375 6.007812 -12.421875 4.9375 -11.390625 C 3.875 -10.359375 3.34375 -9.085938 3.34375 -7.578125 C 3.34375 -6.078125 3.878906 -4.800781 4.953125 -3.75 C 6.023438 -2.707031 7.304688 -2.1875 8.796875 -2.1875 C 10.285156 -2.1875 11.554688 -2.707031 12.609375 -3.75 C 13.660156 -4.800781 14.1875 -6.078125 14.1875 -7.578125 C 14.1875 -9.085938 13.660156 -10.359375 12.609375 -11.390625 C 11.554688 -12.421875 10.285156 -12.9375 8.796875 -12.9375 Z M 8.796875 -12.9375 "/></g></g></g><g fill="#ffffff" fill-opacity="1"><g transform="translate(500.846591, 550.331233)"><g><path d="M 15.15625 0 L 12.640625 0 L 4.546875 -10.875 L 4.546875 0 L 2 0 L 2 -15.171875 L 4.5 -15.171875 L 12.640625 -4.265625 L 12.640625 -15.171875 L 15.15625 -15.171875 Z M 15.15625 0 "/></g></g></g></svg>